<svg width="67" height="21" viewBox="0 0 67 21" fill="none" xmlns="http://www.w3.org/2000/svg">
<path d="M1.612 19L0 0.799999H2.47L3.432 11.538L4.524 3.374H6.214L7.306 11.538L8.268 0.799999H10.738L9.126 19H6.63L5.382 9.198L4.108 19H1.612ZM17.67 16.582L17.462 19H11.768V3.218H11.378L11.638 0.799999H17.67L17.41 3.218H14.238V8.678H17.15L16.89 11.096H14.238V16.582H17.67ZM20.9158 13.8V16.556C20.9158 16.6427 20.9591 16.686 21.0458 16.686H22.0858C22.1724 16.686 22.2158 16.6427 22.2158 16.556V11.876L20.1618 10.966C20.0058 10.914 19.7891 10.8273 19.5118 10.706C19.2344 10.5673 18.9831 10.368 18.7578 10.108C18.5498 9.848 18.4458 9.49267 18.4458 9.042V3.114C18.4458 2.386 18.6711 1.80533 19.1218 1.372C19.5724 0.921332 20.1618 0.695999 20.8898 0.695999H22.2418C22.9698 0.695999 23.5591 0.921332 24.0098 1.372C24.4604 1.80533 24.6858 2.386 24.6858 3.114V6.962L22.2158 6.754V3.244C22.2158 3.15733 22.1724 3.114 22.0858 3.114H21.0458C20.9591 3.114 20.9158 3.15733 20.9158 3.244V8.678L22.9698 9.588C23.1258 9.65733 23.3424 9.75267 23.6198 9.874C23.8971 9.99533 24.1398 10.186 24.3478 10.446C24.5731 10.706 24.6858 11.0613 24.6858 11.512V16.686C24.6858 17.414 24.4604 18.0033 24.0098 18.454C23.5591 18.8873 22.9698 19.104 22.2418 19.104H20.8898C20.1618 19.104 19.5724 18.8873 19.1218 18.454C18.6711 18.0033 18.4458 17.414 18.4458 16.686V13.8H20.9158ZM25.479 3.218V0.799999H32.629V3.218H30.289V19H27.819V3.218H25.479Z" fill="black"/>
<path d="M40.6642 10.632C40.8562 10.632 41.0482 10.664 41.2402 10.728C41.7842 11.3893 42.1575 12.536 42.3602 14.168C42.5628 15.7893 42.6642 17.4 42.6642 19L39.7842 19.24C39.7842 16.7867 39.6935 14.552 39.5122 12.536C38.0935 13.0587 37.1495 15.2453 36.6802 19.096L35.0962 19.24L34.2802 8.072L37.7042 7.544L37.1122 14.136H37.2562C37.6935 13.0587 38.2055 12.2053 38.7922 11.576C39.3895 10.9467 40.0135 10.632 40.6642 10.632ZM45.7368 19.24L44.9208 11.32L48.3448 10.792L47.3208 19.096L45.7368 19.24ZM45.4168 9.544C45.1288 9.24533 44.9848 8.89333 44.9848 8.488C44.9848 8.08267 45.1288 7.736 45.4168 7.448C45.7154 7.14933 46.0674 7 46.4728 7C46.8781 7 47.2248 7.14933 47.5128 7.448C47.8114 7.736 47.9608 8.08267 47.9608 8.488C47.9608 8.89333 47.8114 9.24533 47.5128 9.544C47.2248 9.832 46.8781 9.976 46.4728 9.976C46.0674 9.976 45.7154 9.832 45.4168 9.544ZM51.393 19.24L50.577 8.072L54.001 7.544L52.977 19.096L51.393 19.24ZM57.0493 19.24L56.2333 8.072L59.6573 7.544L58.6333 19.096L57.0493 19.24ZM61.7295 13.736C61.7295 12.3707 62.4495 11.1227 63.8895 9.992L66.5135 11.752C65.3295 12.5093 64.7375 13.304 64.7375 14.136C64.7375 14.5733 64.9775 15.144 65.4575 15.848C65.9482 16.552 66.1935 17.1013 66.1935 17.496C66.1935 18.8933 65.2335 19.9707 63.3135 20.728L62.6095 19.784C63.4522 19.3253 63.8735 18.8187 63.8735 18.264C63.8735 17.7413 63.5162 17.08 62.8015 16.28C62.5349 15.9813 62.2895 15.6027 62.0655 15.144C61.8415 14.6853 61.7295 14.216 61.7295 13.736Z" fill="#31670F"/>
</svg>
